<?xml version="1.0" encoding="UTF-8"?>
<svg id="Layer_2" xmlns="http://www.w3.org/2000/svg" viewBox="0 0 198.22 86.48">
  <defs>
    <style>
      .colp-1 {
        fill: #75c043;
      }

      .colp-2 {
        fill: #fff;
      }
    </style>
  </defs>
  <g id="Layer_1-2" data-name="Layer_1">
    <g>
      <path class="colp-2" d="M68.15,24.1l3.21,21.64h.52l3.42-23.03,7.14-4.62-7.48,37.37v11.4h-6.92v-11.4l-6.51-29.31,6.62-2.04Z"/>
      <path class="colp-2" d="M84.16,20.56c.43-2.3,1.25-4.5,2.8-6.2,1.46-1.61,3.52-2.66,5.7-3.08,3.29-.64,7.12-.12,9.5,2.34,2.16,2.23,2.25,5.55,2.4,8.43.19,3.59-.09,7.19-.09,10.79v20.84c0,2.37-.26,4.41-.79,6.12s-1.25,3.13-2.18,4.27c-.93,1.13-2.03,1.98-3.31,2.53-1.28.56-2.69.83-4.25.83s-2.9-.28-4.16-.83c-1.26-.55-2.34-1.38-3.23-2.49-.89-1.11-1.59-2.53-2.09-4.27-.51-1.74-.76-3.79-.76-6.16,0,0,0-26.96,0-26.98,0-1.93.07-4.08.46-6.14ZM90.63,54.35c0,.96.09,1.78.29,2.46.19.68.44,1.22.75,1.62.31.41.68.69,1.1.87.43.18.85.26,1.28.26.46,0,.9-.09,1.31-.26s.76-.46,1.07-.87c.31-.4.56-.94.76-1.62s.29-1.5.29-2.46v-28.26c0-1.01-.1-1.84-.29-2.49s-.45-1.18-.76-1.59-.67-.69-1.07-.87c-.41-.18-.84-.26-1.31-.26-.43,0-.85.09-1.28.26-.43.18-.79.47-1.1.87s-.56.93-.75,1.59c-.2.65-.29,1.48-.29,2.49v28.26Z"/>
      <path class="colp-2" d="M124.59,1.93v12.82l-11.17,42.49.29.52h11.51v9.09h-18.96v-9.09l11.17-42.49-.29-1.94-9.86,2.87-.83-8.73,18.13-5.54Z"/>
      <path class="colp-2" d="M135.92.44v66.4h-6.92V1.48l6.92-1.03Z"/>
      <path class="colp-2" d="M146.62,0v56.91h7.73v9.93h-14.65V0h6.92Z"/>
      <path class="colp-2" d="M165.05.44v56.47h7.73v9.93h-14.65V0l6.92.44Z"/>
      <path class="colp-2" d="M192.84,4.24l5.35,62.61h-6.98l-3.61-46.47h-.47l-3.66,46.47h-6.92l5.56-64.24,10.73,1.63ZM183.13,49.32v-9.55h8.26v9.55h-8.26Z"/>
      <g>
        <path class="colp-2" d="M58.16,28.15c-.93-.87-2.03-1.52-3.31-1.95-1.28-.43-2.69-.64-4.25-.64s-2.9.21-4.16.64c-1.26.43-2.34,1.07-3.23,1.92-.89.85-1.59,1.95-2.09,3.29-.51,1.34-.76,2.9-.76,4.68v19.35l2.42,2.42,4.5-4.5v-17.74c0-.78.09-1.41.29-1.92.19-.5.44-.91.75-1.22s.68-.53,1.1-.67c.43-.13.85-.2,1.28-.2.46,0,.9.07,1.31.2.41.14.76.36,1.07.67s.56.72.76,1.22.29,1.14.29,1.92v6.98h6.98v-6.51c0-1.78-.26-3.33-.79-4.65s-1.25-2.41-2.18-3.28Z"/>
        <path class="colp-2" d="M61.13,44.98h-10.58v4.59h3.61v6.45c0,.13-.04.21-.05.33l1.31,1.31,5.7-5.7v-6.99Z"/>
      </g>
    </g>
    <path class="colp-1" d="M31.07,24.57l6-6,5.6,5.6,6.05-6.05,6.4,6.4,6.1-6.1V0H0l12.41,12.41v54.44h48.71v-11.73l-5.7,5.7-6.22-6.22-6.4,6.4-5.87-5.87-5.83,5.83-6.33-6.33V18.26l6.3,6.3ZM30.62,7.13c2.16,0,3.9,1.75,3.9,3.9s-1.75,3.9-3.9,3.9-3.9-1.75-3.9-3.9,1.75-3.9,3.9-3.9Z"/>
    <g>
      <path class="colp-2" d="M110.45,81.01v2.52h6.42v2.78h-10.47v-12.99h10.47v2.78h-6.42v2.11h5.82v2.78h-5.82Z"/>
      <path class="colp-2" d="M123.29,84.05l-.78,2.27h-4.29l5.25-12.99h4.52l5.23,12.99h-4.29l-.78-2.27h-4.86ZM127.23,81.37l-1.51-4.34-1.49,4.34h3Z"/>
      <path class="colp-2" d="M135.97,76.12h-4.03v-2.78h12.13v2.78h-4.03v10.2h-4.06v-10.2Z"/>
      <path class="colp-2" d="M151.04,76.87c0-2.21,2.29-3.88,5.68-3.88,2.64,0,4.49.95,5.55,2.01l-1.92,1.99c-.73-.67-1.81-1.31-3.26-1.31-1.33,0-1.97.54-1.97,1.03,0,1.69,7.15,1.95,7.15,5.85,0,2.25-2.36,3.92-5.84,3.92-2.93,0-4.86-.99-6.07-1.91l1.86-2.23c.8.64,2.27,1.45,3.92,1.45,1.44,0,2.06-.64,2.06-1.15,0-1.85-7.15-1.87-7.15-5.77Z"/>
      <path class="colp-2" d="M168.35,86.32h-4.06v-12.99h4.06v4.89h5.23v-4.89h4.06v12.99h-4.06v-5.31h-5.23v5.31Z"/>
      <path class="colp-2" d="M180.25,86.32v-12.99h4.06v12.99h-4.06Z"/>
      <path class="colp-2" d="M190.13,76.12h-4.03v-2.78h12.13v2.78h-4.03v10.2h-4.06v-10.2Z"/>
    </g>
  </g>
</svg>