<?xml version="1.0" encoding="UTF-8"?>
<svg id="Layer_2" xmlns="http://www.w3.org/2000/svg" viewBox="0 0 36 36">
  <defs>
    <style>
      .cn-1, .cn-2 {
        fill: none;
      }

      .cn-2 {
        stroke: currentColor;
        stroke-linecap: round;
        stroke-linejoin: round;
        stroke-width: 3px;
      }
    </style>
  </defs>
  <g id="Layer_1-2" data-name="Layer_1">
    <g>
      <path class="cn-2" d="M26.68,13c.14,3.51,1.59,6.82,2.88,10.09.21.54.42,1.15.17,1.67-.15.32-.46.53-.75.72-3.43,2.15-7.75,2.11-11.79,2.01-.23,0-.49-.02-.66-.18-.18-.16-.22-.42-.25-.66-.53-4.47-1.45-8.9-2.76-13.21"/>
      <path class="cn-2" d="M22.32,21.26c-.69-4.23-2.1-8.34-4.17-12.1-.16-.28-.33-.58-.62-.74-.3-.16-.65-.14-.99-.11-4.23.38-6.42,1.28-10.43,2.69,1.42,4.41,2.41,8.96,2.96,13.56"/>
    </g>
  </g>
</svg>