<?xml version="1.0" encoding="UTF-8"?>
<svg id="Layer_2" xmlns="http://www.w3.org/2000/svg" viewBox="0 0 52.69 48.91">
  <defs>
    <style>
      .gyoz-1 {
        fill: none;
        stroke: currentColor;
        stroke-linecap: round;
        stroke-linejoin: round;
      }
    </style>
  </defs>
  <g id="Layer_1-2" data-name="Layer_1">
    <path class="gyoz-1" d="M5.27,15.83c-.58,1.65-1.47,3.17-2.25,4.74-2.35,4.75-3.6,10.53-1.29,15.31,2.02,4.19,6.32,6.75,10.55,8.66,3.82,1.73,7.82,3.15,11.98,3.65,2.3.28,4.64.28,6.94,0,1.41-.17,2.82-.46,4.11-1.06,1.26-.59,2.37-1.45,3.54-2.21,2.08-1.35,4.36-2.35,6.57-3.49,4.96-2.54,2.21-7.39,6.78-10.57-7.96-1.05-9.05.5-16.02-3.48-2.02-1.16-3.86-2.61-5.66-4.09C22.36,16.58,14.81,9.15,7.97,1.1c-.29-.34-.69-.71-1.11-.57-.43.14-.52.71-.53,1.16-.13,4.62.5,9.72-1.06,14.14Z"/>
    <path class="gyoz-1" d="M11.45,10.54c-.46,3.04-.51,6.14-.12,9.2"/>
    <path class="gyoz-1" d="M17.23,17.06l.33,6.78c.01.22.02.46-.1.64-.08.13-.22.21-.35.29-.63.39-1.26.78-1.89,1.16"/>
    <path class="gyoz-1" d="M23.61,24.28c-.14,1.98.01,3.98.46,5.91.07.32.16.66.06.98-.1.31-.36.54-.6.76-.45.39-.9.78-1.35,1.17"/>
    <path class="gyoz-1" d="M30.26,27.27l2.24,7.89c.12.44.25.91.09,1.34s-3.29,2.72-3.65,2.44"/>
  </g>
</svg>