<?xml version="1.0" encoding="UTF-8"?>
<svg id="Layer_2" xmlns="http://www.w3.org/2000/svg" viewBox="0 0 651.97 150.24">
  <defs>
    <style>
      .cls-1 {
        fill: #75c043;
      }
    </style>
  </defs>
  <g id="Layer_1-2" data-name="Layer_1">
    <path class="cls-1" d="M0,0v85.04l65.2,65.2,65.19-65.2,65.2,65.2,65.2-65.2,65.19,65.2,65.2-65.2,65.2,65.2,65.19-65.2,65.2,65.2,65.2-65.2V0H0ZM42.52,60.27c-9.8,0-17.74-7.95-17.74-17.75s7.94-17.74,17.74-17.74,17.74,7.94,17.74,17.74-7.94,17.75-17.74,17.75ZM609.45,60.27c-9.8,0-17.74-7.95-17.74-17.75s7.94-17.74,17.74-17.74,17.74,7.94,17.74,17.74-7.94,17.75-17.74,17.75Z"/>
  </g>
</svg>