<?xml version="1.0" encoding="UTF-8"?>
<svg id="Layer_2" xmlns="http://www.w3.org/2000/svg" viewBox="0 0 101.82 98.24">
  <defs>
    <style>
      .lcn-1 {
        fill: currentColor;
      }
    </style>
  </defs>
  <g id="Layer_1-2" data-name="Layer_1">
    <path class="lcn-1" d="M24.57,67.17l-6-6,5.6-5.6-6.05-6.05,6.4-6.4-6.1-6.1H0v61.24l12.41-12.41h54.44v-48.71h-11.73l5.7,5.7-6.22,6.22,6.4,6.4-5.87,5.87,5.83,5.83-6.33,6.33H18.26l6.3-6.3Z"/>
    <path class="lcn-1" d="M77.25,31.07l6,6-5.6,5.6,6.05,6.05-6.4,6.4,6.1,6.1h18.41V0l-12.41,12.41h-54.44v48.71h11.73l-5.7-5.7,6.22-6.22-6.4-6.4,5.87-5.87-5.83-5.83,6.33-6.33h36.37l-6.3,6.3Z"/>
  </g>
</svg>