<?xml version="1.0" encoding="UTF-8"?>
<svg id="Layer_2" xmlns="http://www.w3.org/2000/svg" viewBox="0 0 36.08 36">
  <defs>
    <style>
      .cls-1, .cls-2 {
        fill: none;
      }

      .cls-2 {
        stroke: #231f20;
        stroke-linecap: round;
        stroke-linejoin: round;
        stroke-width: 3px;
      }
    </style>
  </defs>
  <g id="Layer_1-2" data-name="Layer_1">
    <g>
      <path class="cls-2" d="M2.99,17.88c2-.27,4.01-.55,6.01-.82.34-.05.68-.1.97-.27.33-.2.55-.53.76-.86,2.1-3.27,4.01-6.65,5.71-10.14,3.77,2.6,6.55,6.61,7.67,11.05,1.12,4.44.56,9.29-1.54,13.36-2.03-1.84-4.29-3.42-6.72-4.68-1.73-.91-3.03-.79-4.87-.34-1.07.26-2.17.6-3.21.05-1.4-.74-4.1-7.45-4.78-7.35Z"/>
      <rect class="cls-1" width="36" height="36"/>
      <path class="cls-2" d="M6.69,9.65c9.66,6.1,18.97,12.75,27.89,19.89"/>
      <path class="cls-2" d="M27.32,5.48c-6.65,8.88-13.89,17.31-21.65,25.22"/>
    </g>
  </g>
</svg>